<svg xmlns="http://www.w3.org/2000/svg" fill-opacity="1" color-rendering="auto" color-interpolation="auto" stroke="black" stroke-linecap="square" width="284" stroke-miterlimit="10" shape-rendering="auto" stroke-opacity="1" fill="black" stroke-dasharray="none" font-weight="normal" stroke-width="1" height="345" font-style="normal" stroke-linejoin="miter" font-size="12px" stroke-dashoffset="0" image-rendering="auto"><!--Generated by ySVG 2.5--><defs id="genericDefs"></defs><g><defs id="defs1"><linearGradient x1="85" gradientUnits="userSpaceOnUse" x2="185" y1="0" y2="50" id="linearGradient1" spreadMethod="reflect"><stop stop-opacity="1" stop-color="rgb(235,223,198)" offset="0%"></stop><stop stop-opacity="1" stop-color="rgb(215,192,142)" offset="100%"></stop></linearGradient><linearGradient x1="75" gradientUnits="userSpaceOnUse" x2="195" y1="80" y2="140" id="linearGradient2" spreadMethod="reflect"><stop stop-opacity="1" stop-color="rgb(235,223,198)" offset="0%"></stop><stop stop-opacity="1" stop-color="rgb(215,192,142)" offset="100%"></stop></linearGradient><linearGradient x1="10" gradientUnits="userSpaceOnUse" x2="110" y1="170" y2="220" id="linearGradient3" spreadMethod="reflect"><stop stop-opacity="1" stop-color="rgb(235,223,198)" offset="0%"></stop><stop stop-opacity="1" stop-color="rgb(215,192,142)" offset="100%"></stop></linearGradient><linearGradient x1="160" gradientUnits="userSpaceOnUse" x2="260" y1="170" y2="220" id="linearGradient4" spreadMethod="reflect"><stop stop-opacity="1" stop-color="rgb(235,223,198)" offset="0%"></stop><stop stop-opacity="1" stop-color="rgb(215,192,142)" offset="100%"></stop></linearGradient><linearGradient x1="85" gradientUnits="userSpaceOnUse" x2="185" y1="265" y2="315" id="linearGradient5" spreadMethod="reflect"><stop stop-opacity="1" stop-color="rgb(235,223,198)" offset="0%"></stop><stop stop-opacity="1" stop-color="rgb(215,192,142)" offset="100%"></stop></linearGradient><clipPath clipPathUnits="userSpaceOnUse" id="clipPath1"><path d="M0 0 L284 0 L284 345 L0 345 L0 0 Z"></path></clipPath><clipPath clipPathUnits="userSpaceOnUse" id="clipPath2"><path d="M-5 -15 L279 -15 L279 330 L-5 330 L-5 -15 Z"></path></clipPath></defs><g fill="url(#linearGradient1)" shape-rendering="geometricPrecision" transform="matrix(1,0,0,1,5,15)" stroke="url(#linearGradient1)"><path d="M85 0 L185 0 L185 50 L85 50 Z" stroke="none" clip-path="url(#clipPath2)"></path></g><g stroke-miterlimit="1.45" shape-rendering="geometricPrecision" transform="matrix(1,0,0,1,5,15)" stroke-linecap="butt"><path fill="none" d="M85 0 L185 0 L185 50 L85 50 Z" clip-path="url(#clipPath2)"></path><text x="99.4096" y="21.6898" clip-path="url(#clipPath2)" stroke="none">previous code</text><text x="119.6005" y="37.2093" clip-path="url(#clipPath2)" stroke="none">to run</text></g><g fill="url(#linearGradient2)" shape-rendering="geometricPrecision" transform="matrix(1,0,0,1,5,15)" stroke="url(#linearGradient2)"><path d="M135 80 L195 110 L135 140 L75 110 Z" stroke="none" clip-path="url(#clipPath2)"></path></g><g stroke-miterlimit="1.45" shape-rendering="geometricPrecision" transform="matrix(1,0,0,1,5,15)" stroke-linecap="butt"><path fill="none" d="M135 80 L195 110 L135 140 L75 110 Z" clip-path="url(#clipPath2)"></path><text x="120.7698" y="98.9301" clip-path="url(#clipPath2)" stroke="none">Is the</text><text x="110.8333" y="114.4496" clip-path="url(#clipPath2)" stroke="none">condition</text><text x="122.0351" y="129.969" clip-path="url(#clipPath2)" stroke="none">true?</text></g><g fill="url(#linearGradient3)" shape-rendering="geometricPrecision" transform="matrix(1,0,0,1,5,15)" stroke="url(#linearGradient3)"><path d="M10 170 L110 170 L110 220 L10 220 Z" stroke="none" clip-path="url(#clipPath2)"></path></g><g stroke-miterlimit="1.45" shape-rendering="geometricPrecision" transform="matrix(1,0,0,1,5,15)" stroke-linecap="butt"><path fill="none" d="M10 170 L110 170 L110 220 L10 220 Z" clip-path="url(#clipPath2)"></path><text x="15.5524" y="191.6898" clip-path="url(#clipPath2)" stroke="none">Actions when the</text><text x="18.149" y="207.2093" clip-path="url(#clipPath2)" stroke="none">condition is true</text></g><g fill="url(#linearGradient4)" shape-rendering="geometricPrecision" transform="matrix(1,0,0,1,5,15)" stroke="url(#linearGradient4)"><path d="M160 170 L260 170 L260 220 L160 220 Z" stroke="none" clip-path="url(#clipPath2)"></path></g><g stroke-miterlimit="1.45" shape-rendering="geometricPrecision" transform="matrix(1,0,0,1,5,15)" stroke-linecap="butt"><path fill="none" d="M160 170 L260 170 L260 220 L160 220 Z" clip-path="url(#clipPath2)"></path><text x="165.5524" y="191.6898" clip-path="url(#clipPath2)" stroke="none">Actions when the</text><text x="166.29" y="207.2093" clip-path="url(#clipPath2)" stroke="none">condition is false</text></g><g fill="url(#linearGradient5)" shape-rendering="geometricPrecision" transform="matrix(1,0,0,1,5,15)" stroke="url(#linearGradient5)"><path d="M85 265 L185 265 L185 315 L85 315 Z" stroke="none" clip-path="url(#clipPath2)"></path></g><g stroke-miterlimit="1.45" shape-rendering="geometricPrecision" transform="matrix(1,0,0,1,5,15)" stroke-linecap="butt"><path fill="none" d="M85 265 L185 265 L185 315 L85 315 Z" clip-path="url(#clipPath2)"></path><text x="102.9116" y="286.6898" clip-path="url(#clipPath2)" stroke="none">next code to</text><text x="126.4487" y="302.2093" clip-path="url(#clipPath2)" stroke="none">run</text></g><g stroke-miterlimit="1.45" shape-rendering="geometricPrecision" transform="matrix(1,0,0,1,5,15)" stroke-linecap="butt"><path fill="none" d="M135 50 L135 72" clip-path="url(#clipPath2)"></path></g><g stroke-miterlimit="1.45" shape-rendering="geometricPrecision" transform="matrix(1,0,0,1,5,15)" stroke-linecap="butt"><path d="M135 80 L140 68 L135 71 L130 68 Z" stroke="none" clip-path="url(#clipPath2)"></path><path fill="none" d="M74.9707 110 L60 110 L60 161.9707" clip-path="url(#clipPath2)"></path><path d="M60 169.9707 L65 157.9707 L60 160.9707 L55 157.9707 Z" clip-path="url(#clipPath2)" stroke="none"></path><text x="40.1658" y="144.4496" clip-path="url(#clipPath2)" stroke="none">Yes</text><path fill="none" d="M195 110 L210 110 L210 161.9707" clip-path="url(#clipPath2)"></path><path d="M210 169.9707 L215 157.9707 L210 160.9707 L205 157.9707 Z" clip-path="url(#clipPath2)" stroke="none"></path><text x="212" y="144.4496" clip-path="url(#clipPath2)" stroke="none">No</text><path fill="none" d="M60 220 L60 235 L135 235 L135 256.9707" clip-path="url(#clipPath2)"></path><path d="M135 264.9707 L140 252.9707 L135 255.9707 L130 252.9707 Z" clip-path="url(#clipPath2)" stroke="none"></path><path fill="none" d="M210 220 L210 235 L135 235 L135 256.9707" clip-path="url(#clipPath2)"></path><path d="M135 264.9707 L140 252.9707 L135 255.9707 L130 252.9707 Z" clip-path="url(#clipPath2)" stroke="none"></path></g></g></svg>
