<svg xmlns="http://www.w3.org/2000/svg" fill-opacity="1" color-rendering="auto" color-interpolation="auto" stroke="black" stroke-linecap="square" width="326" stroke-miterlimit="10" shape-rendering="auto" stroke-opacity="1" fill="black" stroke-dasharray="none" font-weight="normal" stroke-width="1" height="662" font-style="normal" stroke-linejoin="miter" font-size="12px" stroke-dashoffset="0" image-rendering="auto"><!--Generated by ySVG 2.5--><defs id="genericDefs"></defs><g><defs id="defs1"><linearGradient x1="10" gradientUnits="userSpaceOnUse" x2="110" y1="140" y2="190" id="linearGradient1" spreadMethod="reflect"><stop stop-opacity="1" stop-color="rgb(232,238,247)" offset="0%"></stop><stop stop-opacity="1" stop-color="rgb(183,201,227)" offset="100%"></stop></linearGradient><linearGradient x1="20" gradientUnits="userSpaceOnUse" x2="100" y1="0" y2="40" id="linearGradient2" spreadMethod="reflect"><stop stop-opacity="1" stop-color="rgb(232,238,247)" offset="0%"></stop><stop stop-opacity="1" stop-color="rgb(183,201,227)" offset="100%"></stop></linearGradient><linearGradient x1="20" gradientUnits="userSpaceOnUse" x2="100" y1="591.1035" y2="631.1035" id="linearGradient3" spreadMethod="reflect"><stop stop-opacity="1" stop-color="rgb(232,238,247)" offset="0%"></stop><stop stop-opacity="1" stop-color="rgb(183,201,227)" offset="100%"></stop></linearGradient><linearGradient x1="20" gradientUnits="userSpaceOnUse" x2="100" y1="70" y2="110" id="linearGradient4" spreadMethod="reflect"><stop stop-opacity="1" stop-color="rgb(232,238,247)" offset="0%"></stop><stop stop-opacity="1" stop-color="rgb(183,201,227)" offset="100%"></stop></linearGradient><linearGradient x1="10" gradientUnits="userSpaceOnUse" x2="110" y1="238.7012" y2="288.7012" id="linearGradient5" spreadMethod="reflect"><stop stop-opacity="1" stop-color="rgb(232,238,247)" offset="0%"></stop><stop stop-opacity="1" stop-color="rgb(183,201,227)" offset="100%"></stop></linearGradient><linearGradient x1="20" gradientUnits="userSpaceOnUse" x2="100" y1="521.1035" y2="561.1035" id="linearGradient6" spreadMethod="reflect"><stop stop-opacity="1" stop-color="rgb(232,238,247)" offset="0%"></stop><stop stop-opacity="1" stop-color="rgb(183,201,227)" offset="100%"></stop></linearGradient><linearGradient x1="10" gradientUnits="userSpaceOnUse" x2="110" y1="337.4023" y2="387.4023" id="linearGradient7" spreadMethod="reflect"><stop stop-opacity="1" stop-color="rgb(232,238,247)" offset="0%"></stop><stop stop-opacity="1" stop-color="rgb(183,201,227)" offset="100%"></stop></linearGradient><linearGradient x1="226" gradientUnits="userSpaceOnUse" x2="306" y1="243.7012" y2="283.7012" id="linearGradient8" spreadMethod="reflect"><stop stop-opacity="1" stop-color="rgb(232,238,247)" offset="0%"></stop><stop stop-opacity="1" stop-color="rgb(183,201,227)" offset="100%"></stop></linearGradient><linearGradient x1="140" gradientUnits="userSpaceOnUse" x2="220" y1="342.4023" y2="382.4023" id="linearGradient9" spreadMethod="reflect"><stop stop-opacity="1" stop-color="rgb(232,238,247)" offset="0%"></stop><stop stop-opacity="1" stop-color="rgb(183,201,227)" offset="100%"></stop></linearGradient><linearGradient x1="140" gradientUnits="userSpaceOnUse" x2="220" y1="436.1035" y2="476.1035" id="linearGradient10" spreadMethod="reflect"><stop stop-opacity="1" stop-color="rgb(232,238,247)" offset="0%"></stop><stop stop-opacity="1" stop-color="rgb(183,201,227)" offset="100%"></stop></linearGradient><linearGradient x1="20" gradientUnits="userSpaceOnUse" x2="100" y1="436.1035" y2="476.1035" id="linearGradient11" spreadMethod="reflect"><stop stop-opacity="1" stop-color="rgb(232,238,247)" offset="0%"></stop><stop stop-opacity="1" stop-color="rgb(183,201,227)" offset="100%"></stop></linearGradient><clipPath clipPathUnits="userSpaceOnUse" id="clipPath1"><path d="M0 0 L326 0 L326 662 L0 662 L0 0 Z"></path></clipPath><clipPath clipPathUnits="userSpaceOnUse" id="clipPath2"><path d="M-5 -15 L321 -15 L321 647 L-5 647 L-5 -15 Z"></path></clipPath></defs><g fill="white" shape-rendering="geometricPrecision" transform="translate(5,15)" stroke="white"><rect x="-5" width="326" height="662" y="-15" clip-path="url(#clipPath2)" stroke="none"></rect></g><g fill="url(#linearGradient1)" shape-rendering="geometricPrecision" transform="matrix(1,0,0,1,5,15)" stroke="url(#linearGradient1)"><path d="M60 140 L110 165 L60 190 L10 165 Z" stroke="none" clip-path="url(#clipPath2)"></path></g><g stroke-miterlimit="1.45" shape-rendering="geometricPrecision" transform="matrix(1,0,0,1,5,15)" stroke-linecap="butt"><path fill="none" d="M60 140 L110 165 L60 190 L10 165 Z" clip-path="url(#clipPath2)"></path><text x="29.5128" y="169.4496" clip-path="url(#clipPath2)" stroke="none">marks&gt;=80?</text></g><g fill="url(#linearGradient2)" shape-rendering="geometricPrecision" transform="matrix(1,0,0,1,5,15)" stroke="url(#linearGradient2)"><rect x="20" y="0" clip-path="url(#clipPath2)" width="80" rx="20" ry="20" height="40" stroke="none"></rect></g><g stroke-miterlimit="1.45" shape-rendering="geometricPrecision" transform="matrix(1,0,0,1,5,15)" stroke-linecap="butt"><rect x="20" y="0" clip-path="url(#clipPath2)" fill="none" width="80" rx="20" ry="20" height="40"></rect><text x="48.3964" y="24.4496" clip-path="url(#clipPath2)" stroke="none">start</text></g><g fill="url(#linearGradient3)" shape-rendering="geometricPrecision" transform="matrix(1,0,0,1,5,15)" stroke="url(#linearGradient3)"><rect x="20" y="591.1035" clip-path="url(#clipPath2)" width="80" rx="20" ry="20" height="40" stroke="none"></rect></g><g stroke-miterlimit="1.45" shape-rendering="geometricPrecision" transform="matrix(1,0,0,1,5,15)" stroke-linecap="butt"><rect x="20" y="591.1035" clip-path="url(#clipPath2)" fill="none" width="80" rx="20" ry="20" height="40"></rect><text x="50.4473" y="615.5531" clip-path="url(#clipPath2)" stroke="none">end</text></g><g fill="url(#linearGradient4)" shape-rendering="geometricPrecision" transform="matrix(1,0,0,1,5,15)" stroke="url(#linearGradient4)"><path d="M30.2 70 L100 70 L89.8 110 L20 110 Z" stroke="none" clip-path="url(#clipPath2)"></path></g><g stroke-miterlimit="1.45" shape-rendering="geometricPrecision" transform="matrix(1,0,0,1,5,15)" stroke-linecap="butt"><path fill="none" d="M30.2 70 L100 70 L89.8 110 L20 110 Z" clip-path="url(#clipPath2)"></path><text x="29.7226" y="94.4496" clip-path="url(#clipPath2)" stroke="none">input marks</text></g><g fill="url(#linearGradient5)" shape-rendering="geometricPrecision" transform="matrix(1,0,0,1,5,15)" stroke="url(#linearGradient5)"><path d="M60 238.7012 L110 263.7012 L60 288.7012 L10 263.7012 Z" stroke="none" clip-path="url(#clipPath2)"></path></g><g stroke-miterlimit="1.45" shape-rendering="geometricPrecision" transform="matrix(1,0,0,1,5,15)" stroke-linecap="butt"><path fill="none" d="M60 238.7012 L110 263.7012 L60 288.7012 L10 263.7012 Z" clip-path="url(#clipPath2)"></path><text x="29.5128" y="268.1507" clip-path="url(#clipPath2)" stroke="none">marks&gt;=70?</text></g><g fill="url(#linearGradient6)" shape-rendering="geometricPrecision" transform="matrix(1,0,0,1,5,15)" stroke="url(#linearGradient6)"><path d="M30.2 521.1035 L100 521.1035 L89.8 561.1035 L20 561.1035 Z" stroke="none" clip-path="url(#clipPath2)"></path></g><g stroke-miterlimit="1.45" shape-rendering="geometricPrecision" transform="matrix(1,0,0,1,5,15)" stroke-linecap="butt"><path fill="none" d="M30.2 521.1035 L100 521.1035 L89.8 561.1035 L20 561.1035 Z" clip-path="url(#clipPath2)"></path><text x="26.9042" y="545.5531" clip-path="url(#clipPath2)" stroke="none">output grade</text></g><g fill="url(#linearGradient7)" shape-rendering="geometricPrecision" transform="matrix(1,0,0,1,5,15)" stroke="url(#linearGradient7)"><path d="M60 337.4023 L110 362.4023 L60 387.4023 L10 362.4023 Z" stroke="none" clip-path="url(#clipPath2)"></path></g><g stroke-miterlimit="1.45" shape-rendering="geometricPrecision" transform="matrix(1,0,0,1,5,15)" stroke-linecap="butt"><path fill="none" d="M60 337.4023 L110 362.4023 L60 387.4023 L10 362.4023 Z" clip-path="url(#clipPath2)"></path><text x="29.5128" y="366.8519" clip-path="url(#clipPath2)" stroke="none">marks&gt;=50?</text></g><g fill="url(#linearGradient8)" shape-rendering="geometricPrecision" transform="matrix(1,0,0,1,5,15)" stroke="url(#linearGradient8)"><path d="M226 243.7012 L306 243.7012 L306 283.7012 L226 283.7012 Z" stroke="none" clip-path="url(#clipPath2)"></path></g><g stroke-miterlimit="1.45" shape-rendering="geometricPrecision" transform="matrix(1,0,0,1,5,15)" stroke-linecap="butt"><path fill="none" d="M226 243.7012 L306 243.7012 L306 283.7012 L226 283.7012 Z" clip-path="url(#clipPath2)"></path><text x="237.7375" y="268.1507" clip-path="url(#clipPath2)" stroke="none">grade = "A"</text></g><g fill="url(#linearGradient9)" shape-rendering="geometricPrecision" transform="matrix(1,0,0,1,5,15)" stroke="url(#linearGradient9)"><path d="M140 342.4023 L220 342.4023 L220 382.4023 L140 382.4023 Z" stroke="none" clip-path="url(#clipPath2)"></path></g><g stroke-miterlimit="1.45" shape-rendering="geometricPrecision" transform="matrix(1,0,0,1,5,15)" stroke-linecap="butt"><path fill="none" d="M140 342.4023 L220 342.4023 L220 382.4023 L140 382.4023 Z" clip-path="url(#clipPath2)"></path><text x="151.7435" y="366.8519" clip-path="url(#clipPath2)" stroke="none">grade = "B"</text></g><g fill="url(#linearGradient10)" shape-rendering="geometricPrecision" transform="matrix(1,0,0,1,5,15)" stroke="url(#linearGradient10)"><path d="M140 436.1035 L220 436.1035 L220 476.1035 L140 476.1035 Z" stroke="none" clip-path="url(#clipPath2)"></path></g><g stroke-miterlimit="1.45" shape-rendering="geometricPrecision" transform="matrix(1,0,0,1,5,15)" stroke-linecap="butt"><path fill="none" d="M140 436.1035 L220 436.1035 L220 476.1035 L140 476.1035 Z" clip-path="url(#clipPath2)"></path><text x="151.8215" y="460.5531" clip-path="url(#clipPath2)" stroke="none">grade = "C"</text></g><g fill="url(#linearGradient11)" shape-rendering="geometricPrecision" transform="matrix(1,0,0,1,5,15)" stroke="url(#linearGradient11)"><path d="M20 436.1035 L100 436.1035 L100 476.1035 L20 476.1035 Z" stroke="none" clip-path="url(#clipPath2)"></path></g><g stroke-miterlimit="1.45" shape-rendering="geometricPrecision" transform="matrix(1,0,0,1,5,15)" stroke-linecap="butt"><path fill="none" d="M20 436.1035 L100 436.1035 L100 476.1035 L20 476.1035 Z" clip-path="url(#clipPath2)"></path><text x="31.3238" y="460.5531" clip-path="url(#clipPath2)" stroke="none">grade = "D"</text></g><g stroke-miterlimit="1.45" shape-rendering="geometricPrecision" transform="matrix(1,0,0,1,5,15)" stroke-linecap="butt"><path fill="none" d="M60 40 L60 61.9707" clip-path="url(#clipPath2)"></path></g><g stroke-miterlimit="1.45" shape-rendering="geometricPrecision" transform="matrix(1,0,0,1,5,15)" stroke-linecap="butt"><path d="M60 69.9707 L65 57.9707 L60 60.9707 L55 57.9707 Z" stroke="none" clip-path="url(#clipPath2)"></path><path fill="none" d="M60 110 L60 132" clip-path="url(#clipPath2)"></path><path d="M60 140 L65 128 L60 131 L55 128 Z" clip-path="url(#clipPath2)" stroke="none"></path><path fill="none" d="M60 190 L60 230.7012" clip-path="url(#clipPath2)"></path><path d="M60 238.7012 L65 226.7012 L60 229.7012 L55 226.7012 Z" clip-path="url(#clipPath2)" stroke="none"></path><text x="64" y="214.1246" clip-path="url(#clipPath2)" stroke="none">No</text><path fill="none" d="M60 561.1035 L60 583.0742" clip-path="url(#clipPath2)"></path><path d="M60 591.0742 L65 579.0742 L60 582.0742 L55 579.0742 Z" clip-path="url(#clipPath2)" stroke="none"></path><path fill="none" d="M60 288.7012 L60 329.4023" clip-path="url(#clipPath2)"></path><path d="M60 337.4023 L65 325.4023 L60 328.4023 L55 325.4023 Z" clip-path="url(#clipPath2)" stroke="none"></path><text x="64" y="312.8258" clip-path="url(#clipPath2)" stroke="none">No</text><path fill="none" d="M110 165 L266 165 L266 235.6628" clip-path="url(#clipPath2)"></path><path d="M266 243.6628 L271 231.6628 L266 234.6628 L261 231.6628 Z" clip-path="url(#clipPath2)" stroke="none"></path><text x="122.1776" y="181.2093" clip-path="url(#clipPath2)" stroke="none">Yes</text><path fill="none" d="M266 283.7012 L266 491.1035 L60 491.1035 L60 513.0742" clip-path="url(#clipPath2)"></path><path d="M60 521.0742 L65 509.0742 L60 512.0742 L55 509.0742 Z" clip-path="url(#clipPath2)" stroke="none"></path><path fill="none" d="M110 263.7012 L180 263.7012 L180 334.3639" clip-path="url(#clipPath2)"></path><path d="M180 342.3639 L185 330.3639 L180 333.3639 L175 330.3639 Z" clip-path="url(#clipPath2)" stroke="none"></path><text x="122.2634" y="279.9105" clip-path="url(#clipPath2)" stroke="none">Yes</text><path fill="none" d="M220 362.4023 L266 362.4023 L266 491.1035 L60 491.1035 L60 513.0742" clip-path="url(#clipPath2)"></path><path d="M60 521.0742 L65 509.0742 L60 512.0742 L55 509.0742 Z" clip-path="url(#clipPath2)" stroke="none"></path><path fill="none" d="M110 362.4023 L125 362.4023 L125 397.4023 L180 397.4023 L180 428.0657" clip-path="url(#clipPath2)"></path><path d="M180 436.0657 L185 424.0657 L180 427.0657 L175 424.0657 Z" clip-path="url(#clipPath2)" stroke="none"></path><text x="113.1454" y="355.0922" clip-path="url(#clipPath2)" stroke="none">Yes</text><path fill="none" d="M180 476.1035 L180 491.1035 L60 491.1035 L60 513.0742" clip-path="url(#clipPath2)"></path><path d="M60 521.0742 L65 509.0742 L60 512.0742 L55 509.0742 Z" clip-path="url(#clipPath2)" stroke="none"></path><path fill="none" d="M60 387.4023 L60 428.056" clip-path="url(#clipPath2)"></path><path d="M60 436.056 L65 424.056 L60 427.056 L55 424.056 Z" clip-path="url(#clipPath2)" stroke="none"></path><text x="64" y="411.5269" clip-path="url(#clipPath2)" stroke="none">No</text><path fill="none" d="M60 476.1035 L60 513.0596" clip-path="url(#clipPath2)"></path><path d="M60 521.0596 L65 509.0596 L60 512.0596 L55 509.0596 Z" clip-path="url(#clipPath2)" stroke="none"></path></g></g></svg>
