<svg xmlns="http://www.w3.org/2000/svg" fill-opacity="1" color-rendering="auto" color-interpolation="auto" stroke="black" stroke-linecap="square" width="230" stroke-miterlimit="10" shape-rendering="auto" stroke-opacity="1" fill="black" stroke-dasharray="none" font-weight="normal" stroke-width="1" height="464" font-style="normal" stroke-linejoin="miter" font-size="12px" stroke-dashoffset="0" image-rendering="auto"><!--Generated by ySVG 2.5--><defs id="genericDefs"></defs><g><defs id="defs1"><linearGradient x1="10" gradientUnits="userSpaceOnUse" x2="110" y1="140" y2="190" id="linearGradient1" spreadMethod="reflect"><stop stop-opacity="1" stop-color="rgb(232,238,247)" offset="0%"></stop><stop stop-opacity="1" stop-color="rgb(183,201,227)" offset="100%"></stop></linearGradient><linearGradient x1="20" gradientUnits="userSpaceOnUse" x2="100" y1="238.7012" y2="278.7012" id="linearGradient2" spreadMethod="reflect"><stop stop-opacity="1" stop-color="rgb(232,238,247)" offset="0%"></stop><stop stop-opacity="1" stop-color="rgb(183,201,227)" offset="100%"></stop></linearGradient><linearGradient x1="130" gradientUnits="userSpaceOnUse" x2="210" y1="238.7012" y2="278.7012" id="linearGradient3" spreadMethod="reflect"><stop stop-opacity="1" stop-color="rgb(232,238,247)" offset="0%"></stop><stop stop-opacity="1" stop-color="rgb(183,201,227)" offset="100%"></stop></linearGradient><linearGradient x1="20" gradientUnits="userSpaceOnUse" x2="100" y1="0" y2="40" id="linearGradient4" spreadMethod="reflect"><stop stop-opacity="1" stop-color="rgb(232,238,247)" offset="0%"></stop><stop stop-opacity="1" stop-color="rgb(183,201,227)" offset="100%"></stop></linearGradient><linearGradient x1="20" gradientUnits="userSpaceOnUse" x2="100" y1="70" y2="110" id="linearGradient5" spreadMethod="reflect"><stop stop-opacity="1" stop-color="rgb(232,238,247)" offset="0%"></stop><stop stop-opacity="1" stop-color="rgb(183,201,227)" offset="100%"></stop></linearGradient><linearGradient x1="20" gradientUnits="userSpaceOnUse" x2="100" y1="323.7012" y2="363.7012" id="linearGradient6" spreadMethod="reflect"><stop stop-opacity="1" stop-color="rgb(232,238,247)" offset="0%"></stop><stop stop-opacity="1" stop-color="rgb(183,201,227)" offset="100%"></stop></linearGradient><linearGradient x1="20" gradientUnits="userSpaceOnUse" x2="100" y1="393.7012" y2="433.7012" id="linearGradient7" spreadMethod="reflect"><stop stop-opacity="1" stop-color="rgb(232,238,247)" offset="0%"></stop><stop stop-opacity="1" stop-color="rgb(183,201,227)" offset="100%"></stop></linearGradient><clipPath clipPathUnits="userSpaceOnUse" id="clipPath1"><path d="M0 0 L230 0 L230 464 L0 464 L0 0 Z"></path></clipPath><clipPath clipPathUnits="userSpaceOnUse" id="clipPath2"><path d="M-5 -15 L225 -15 L225 449 L-5 449 L-5 -15 Z"></path></clipPath></defs><g fill="url(#linearGradient1)" shape-rendering="geometricPrecision" transform="matrix(1,0,0,1,5,15)" stroke="url(#linearGradient1)"><path d="M60 140 L110 165 L60 190 L10 165 Z" stroke="none" clip-path="url(#clipPath2)"></path></g><g stroke-miterlimit="1.45" shape-rendering="geometricPrecision" transform="matrix(1,0,0,1,5,15)" stroke-linecap="butt"><path fill="none" d="M60 140 L110 165 L60 190 L10 165 Z" clip-path="url(#clipPath2)"></path><text x="29.5128" y="169.4496" clip-path="url(#clipPath2)" stroke="none">marks&gt;=50?</text></g><g fill="url(#linearGradient2)" shape-rendering="geometricPrecision" transform="matrix(1,0,0,1,5,15)" stroke="url(#linearGradient2)"><path d="M20 238.7012 L100 238.7012 L100 278.7012 L20 278.7012 Z" stroke="none" clip-path="url(#clipPath2)"></path></g><g stroke-miterlimit="1.45" shape-rendering="geometricPrecision" transform="matrix(1,0,0,1,5,15)" stroke-linecap="butt"><path fill="none" d="M20 238.7012 L100 238.7012 L100 278.7012 L20 278.7012 Z" clip-path="url(#clipPath2)"></path><text x="27.0601" y="263.1507" clip-path="url(#clipPath2)" stroke="none">result="pass"</text></g><g fill="url(#linearGradient3)" shape-rendering="geometricPrecision" transform="matrix(1,0,0,1,5,15)" stroke="url(#linearGradient3)"><path d="M130 238.7012 L210 238.7012 L210 278.7012 L130 278.7012 Z" stroke="none" clip-path="url(#clipPath2)"></path></g><g stroke-miterlimit="1.45" shape-rendering="geometricPrecision" transform="matrix(1,0,0,1,5,15)" stroke-linecap="butt"><path fill="none" d="M130 238.7012 L210 238.7012 L210 278.7012 L130 278.7012 Z" clip-path="url(#clipPath2)"></path><text x="140.0824" y="263.1507" clip-path="url(#clipPath2)" stroke="none">result="fail"</text></g><g fill="url(#linearGradient4)" shape-rendering="geometricPrecision" transform="matrix(1,0,0,1,5,15)" stroke="url(#linearGradient4)"><rect x="20" y="0" clip-path="url(#clipPath2)" width="80" rx="20" ry="20" height="40" stroke="none"></rect></g><g stroke-miterlimit="1.45" shape-rendering="geometricPrecision" transform="matrix(1,0,0,1,5,15)" stroke-linecap="butt"><rect x="20" y="0" clip-path="url(#clipPath2)" fill="none" width="80" rx="20" ry="20" height="40"></rect><text x="48.3964" y="24.4496" clip-path="url(#clipPath2)" stroke="none">start</text></g><g fill="url(#linearGradient5)" shape-rendering="geometricPrecision" transform="matrix(1,0,0,1,5,15)" stroke="url(#linearGradient5)"><path d="M30.2 70 L100 70 L89.8 110 L20 110 Z" stroke="none" clip-path="url(#clipPath2)"></path></g><g stroke-miterlimit="1.45" shape-rendering="geometricPrecision" transform="matrix(1,0,0,1,5,15)" stroke-linecap="butt"><path fill="none" d="M30.2 70 L100 70 L89.8 110 L20 110 Z" clip-path="url(#clipPath2)"></path><text x="29.7226" y="94.4496" clip-path="url(#clipPath2)" stroke="none">input marks</text></g><g fill="url(#linearGradient6)" shape-rendering="geometricPrecision" transform="matrix(1,0,0,1,5,15)" stroke="url(#linearGradient6)"><path d="M20 323.7012 L100 323.7012 L100 363.7012 L20 363.7012 Z" stroke="none" clip-path="url(#clipPath2)"></path></g><g stroke-miterlimit="1.45" shape-rendering="geometricPrecision" transform="matrix(1,0,0,1,5,15)" stroke-linecap="butt"><path fill="none" d="M20 323.7012 L100 323.7012 L100 363.7012 L20 363.7012 Z" clip-path="url(#clipPath2)"></path><text x="26.7843" y="348.1507" clip-path="url(#clipPath2)" stroke="none">output result</text></g><g fill="url(#linearGradient7)" shape-rendering="geometricPrecision" transform="matrix(1,0,0,1,5,15)" stroke="url(#linearGradient7)"><rect x="20" y="393.7012" clip-path="url(#clipPath2)" width="80" rx="20" ry="20" height="40" stroke="none"></rect></g><g stroke-miterlimit="1.45" shape-rendering="geometricPrecision" transform="matrix(1,0,0,1,5,15)" stroke-linecap="butt"><rect x="20" y="393.7012" clip-path="url(#clipPath2)" fill="none" width="80" rx="20" ry="20" height="40"></rect><text x="50.4473" y="418.1507" clip-path="url(#clipPath2)" stroke="none">end</text></g><g stroke-miterlimit="1.45" shape-rendering="geometricPrecision" transform="matrix(1,0,0,1,5,15)" stroke-linecap="butt"><path fill="none" d="M60 190 L60 230.6536" clip-path="url(#clipPath2)"></path></g><g stroke-miterlimit="1.45" shape-rendering="geometricPrecision" transform="matrix(1,0,0,1,5,15)" stroke-linecap="butt"><path d="M60 238.6536 L65 226.6536 L60 229.6536 L55 226.6536 Z" stroke="none" clip-path="url(#clipPath2)"></path><text x="64" y="214.3343" clip-path="url(#clipPath2)" stroke="none">Yes</text><path fill="none" d="M110 165 L170 165 L170 230.6652" clip-path="url(#clipPath2)"></path><path d="M170 238.6652 L175 226.6652 L170 229.6652 L165 226.6652 Z" clip-path="url(#clipPath2)" stroke="none"></path><text x="122.125" y="181.2093" clip-path="url(#clipPath2)" stroke="none">No</text><path fill="none" d="M60 40 L60 61.9707" clip-path="url(#clipPath2)"></path><path d="M60 69.9707 L65 57.9707 L60 60.9707 L55 57.9707 Z" clip-path="url(#clipPath2)" stroke="none"></path><path fill="none" d="M60 110 L60 132" clip-path="url(#clipPath2)"></path><path d="M60 140 L65 128 L60 131 L55 128 Z" clip-path="url(#clipPath2)" stroke="none"></path><path fill="none" d="M60 278.7012 L60 315.6572" clip-path="url(#clipPath2)"></path><path d="M60 323.6572 L65 311.6572 L60 314.6572 L55 311.6572 Z" clip-path="url(#clipPath2)" stroke="none"></path><path fill="none" d="M170 278.7012 L170 293.7012 L60 293.7012 L60 315.6719" clip-path="url(#clipPath2)"></path><path d="M60 323.6719 L65 311.6719 L60 314.6719 L55 311.6719 Z" clip-path="url(#clipPath2)" stroke="none"></path><path fill="none" d="M60 363.7012 L60 385.6719" clip-path="url(#clipPath2)"></path><path d="M60 393.6719 L65 381.6719 L60 384.6719 L55 381.6719 Z" clip-path="url(#clipPath2)" stroke="none"></path></g></g></svg>
